<svg width="22" height="22" viewBox="0 0 22 22" fill="none" xmlns="http://www.w3.org/2000/svg">
<g id="add_circle_FILL0_wght300_GRAD0_opsz48 1">
<path id="Vector" d="M10.5309 15.3544H11.5709V11.5855H15.354V10.5455H11.5709V6.64616H10.5309V10.5455H6.64567V11.5855H10.5309V15.3544ZM11.0074 19.7086C9.80119 19.7086 8.67142 19.4801 7.61814 19.0229C6.56486 18.5658 5.64242 17.9417 4.85084 17.1504C4.05923 16.3592 3.43478 15.4366 2.97747 14.3826C2.52016 13.3287 2.2915 12.1979 2.2915 10.9904C2.2915 9.78871 2.52006 8.65919 2.97717 7.60183C3.43428 6.54447 4.05846 5.62382 4.84969 4.83987C5.64094 4.0559 6.56354 3.43527 7.6175 2.97796C8.67145 2.52065 9.8022 2.29199 11.0097 2.29199C12.2114 2.29199 13.3409 2.52055 14.3983 2.97766C15.4556 3.43477 16.3763 4.05512 17.1602 4.83872C17.9442 5.62233 18.5649 6.54381 19.0222 7.60314C19.4795 8.66245 19.7081 9.7923 19.7081 10.9927C19.7081 12.1989 19.4796 13.3287 19.0225 14.382C18.5653 15.4353 17.945 16.3563 17.1614 17.1451C16.3778 17.9338 15.4563 18.5583 14.397 19.0184C13.3377 19.4785 12.2078 19.7086 11.0074 19.7086ZM11.0113 18.6686C13.1378 18.6686 14.9456 17.9217 16.4346 16.428C17.9236 14.9343 18.6681 13.1213 18.6681 10.9888C18.6681 8.8623 17.925 7.05453 16.4389 5.56552C14.9527 4.07654 13.1397 3.33204 10.9998 3.33204C8.87503 3.33204 7.06579 4.07511 5.57209 5.56124C4.0784 7.04737 3.33155 8.86039 3.33155 11.0003C3.33155 13.1251 4.0784 14.9343 5.57209 16.428C7.06579 17.9217 8.87885 18.6686 11.0113 18.6686Z" fill="#868E96"/>
</g>
</svg>
