<svg width="16" height="17" viewBox="0 0 16 17" fill="none" xmlns="http://www.w3.org/2000/svg">
<g id="Arrow right short">
<path id="Vector" fill-rule="evenodd" clip-rule="evenodd" d="M8.14592 5.14592C8.19236 5.09935 8.24754 5.06241 8.30828 5.0372C8.36903 5.012 8.43415 4.99902 8.49992 4.99902C8.56568 4.99902 8.63081 5.012 8.69155 5.0372C8.7523 5.06241 8.80747 5.09935 8.85392 5.14592L11.8539 8.14592C11.9005 8.19236 11.9374 8.24754 11.9626 8.30828C11.9878 8.36903 12.0008 8.43415 12.0008 8.49992C12.0008 8.56568 11.9878 8.63081 11.9626 8.69155C11.9374 8.7523 11.9005 8.80747 11.8539 8.85392L8.85392 11.8539C8.76003 11.9478 8.63269 12.0005 8.49992 12.0005C8.36714 12.0005 8.2398 11.9478 8.14592 11.8539C8.05203 11.76 7.99929 11.6327 7.99929 11.4999C7.99929 11.3671 8.05203 11.2398 8.14592 11.1459L10.7929 8.49992L8.14592 5.85392C8.09935 5.80747 8.06241 5.7523 8.0372 5.69155C8.012 5.63081 7.99902 5.56568 7.99902 5.49992C7.99902 5.43415 8.012 5.36903 8.0372 5.30828C8.06241 5.24754 8.09935 5.19236 8.14592 5.14592Z" fill="#6C757D"/>
<path id="Vector_2" fill-rule="evenodd" clip-rule="evenodd" d="M4 8.5C4 8.36739 4.05268 8.24021 4.14645 8.14645C4.24021 8.05268 4.36739 8 4.5 8H11C11.1326 8 11.2598 8.05268 11.3536 8.14645C11.4473 8.24021 11.5 8.36739 11.5 8.5C11.5 8.63261 11.4473 8.75979 11.3536 8.85355C11.2598 8.94732 11.1326 9 11 9H4.5C4.36739 9 4.24021 8.94732 4.14645 8.85355C4.05268 8.75979 4 8.63261 4 8.5Z" fill="#6C757D"/>
</g>
</svg>
