<svg width="16" height="16" viewBox="0 0 16 16" fill="none" xmlns="http://www.w3.org/2000/svg">
<g id="Arrow up right">
<path id="Vector" fill-rule="evenodd" clip-rule="evenodd" d="M6.5 4C6.5 3.86739 6.55268 3.74021 6.64645 3.64645C6.74021 3.55268 6.86739 3.5 7 3.5H12C12.1326 3.5 12.2598 3.55268 12.3536 3.64645C12.4473 3.74021 12.5 3.86739 12.5 4V9C12.5 9.13261 12.4473 9.25979 12.3536 9.35355C12.2598 9.44732 12.1326 9.5 12 9.5C11.8674 9.5 11.7402 9.44732 11.6464 9.35355C11.5527 9.25979 11.5 9.13261 11.5 9V4.5H7C6.86739 4.5 6.74021 4.44732 6.64645 4.35355C6.55268 4.25979 6.5 4.13261 6.5 4Z" fill="black"/>
<path id="Vector_2" fill-rule="evenodd" clip-rule="evenodd" d="M12.3537 3.64592C12.4002 3.69236 12.4372 3.74754 12.4624 3.80828C12.4876 3.86903 12.5005 3.93415 12.5005 3.99992C12.5005 4.06568 12.4876 4.13081 12.4624 4.19155C12.4372 4.2523 12.4002 4.30747 12.3537 4.35392L3.35366 13.3539C3.25977 13.4478 3.13243 13.5005 2.99966 13.5005C2.86688 13.5005 2.73954 13.4478 2.64565 13.3539C2.55177 13.26 2.49902 13.1327 2.49902 12.9999C2.49902 12.8671 2.55177 12.7398 2.64565 12.6459L11.6457 3.64592C11.6921 3.59935 11.7473 3.56241 11.808 3.5372C11.8688 3.512 11.9339 3.49902 11.9997 3.49902C12.0654 3.49902 12.1305 3.512 12.1913 3.5372C12.252 3.56241 12.3072 3.59935 12.3537 3.64592Z" fill="black"/>
</g>
</svg>
