<svg width="16" height="16" viewBox="0 0 16 16" fill="none" xmlns="http://www.w3.org/2000/svg">
<g id="Arrow left">
<path id="Vector" fill-rule="evenodd" clip-rule="evenodd" d="M5.85392 4.64592C5.90048 4.69236 5.93742 4.74754 5.96263 4.80828C5.98784 4.86903 6.00081 4.93415 6.00081 4.99992C6.00081 5.06568 5.98784 5.13081 5.96263 5.19155C5.93742 5.2523 5.90048 5.30747 5.85392 5.35392L3.20692 7.99992L5.85392 10.6459C5.90041 10.6924 5.93728 10.7476 5.96244 10.8083C5.9876 10.8691 6.00055 10.9342 6.00055 10.9999C6.00055 11.0657 5.9876 11.1308 5.96244 11.1915C5.93728 11.2522 5.90041 11.3074 5.85392 11.3539C5.80743 11.4004 5.75224 11.4373 5.6915 11.4624C5.63076 11.4876 5.56566 11.5005 5.49992 11.5005C5.43417 11.5005 5.36907 11.4876 5.30833 11.4624C5.24759 11.4373 5.19241 11.4004 5.14592 11.3539L2.14592 8.35392C2.09935 8.30747 2.06241 8.2523 2.0372 8.19155C2.012 8.13081 1.99902 8.06568 1.99902 7.99992C1.99902 7.93415 2.012 7.86903 2.0372 7.80828C2.06241 7.74754 2.09935 7.69236 2.14592 7.64592L5.14592 4.64592C5.19236 4.59935 5.24754 4.56241 5.30828 4.5372C5.36903 4.512 5.43415 4.49902 5.49992 4.49902C5.56568 4.49902 5.63081 4.512 5.69155 4.5372C5.7523 4.56241 5.80747 4.59935 5.85392 4.64592Z" fill="#007BFF"/>
<path id="Vector_2" fill-rule="evenodd" clip-rule="evenodd" d="M2.5 8C2.5 7.86739 2.55268 7.74021 2.64645 7.64645C2.74021 7.55268 2.86739 7.5 3 7.5H13.5C13.6326 7.5 13.7598 7.55268 13.8536 7.64645C13.9473 7.74021 14 7.86739 14 8C14 8.13261 13.9473 8.25979 13.8536 8.35355C13.7598 8.44732 13.6326 8.5 13.5 8.5H3C2.86739 8.5 2.74021 8.44732 2.64645 8.35355C2.55268 8.25979 2.5 8.13261 2.5 8Z" fill="#007BFF"/>
</g>
</svg>
