<svg width="16" height="16" viewBox="0 0 16 16" fill="none" xmlns="http://www.w3.org/2000/svg">
<g id="Arrow up down">
<path id="Vector" fill-rule="evenodd" clip-rule="evenodd" d="M11 3.5C11.1326 3.5 11.2598 3.55268 11.3536 3.64645C11.4473 3.74021 11.5 3.86739 11.5 4V13C11.5 13.1326 11.4473 13.2598 11.3536 13.3536C11.2598 13.4473 11.1326 13.5 11 13.5C10.8674 13.5 10.7402 13.4473 10.6464 13.3536C10.5527 13.2598 10.5 13.1326 10.5 13V4C10.5 3.86739 10.5527 3.74021 10.6464 3.64645C10.7402 3.55268 10.8674 3.5 11 3.5Z" fill="black"/>
<path id="Vector_2" fill-rule="evenodd" clip-rule="evenodd" d="M10.6459 2.64592C10.6924 2.59935 10.7475 2.56241 10.8083 2.5372C10.869 2.512 10.9341 2.49902 10.9999 2.49902C11.0657 2.49902 11.1308 2.512 11.1916 2.5372C11.2523 2.56241 11.3075 2.59935 11.3539 2.64592L14.3539 5.64592C14.4004 5.69241 14.4373 5.74759 14.4624 5.80833C14.4876 5.86907 14.5005 5.93417 14.5005 5.99992C14.5005 6.06566 14.4876 6.13076 14.4624 6.1915C14.4373 6.25224 14.4004 6.30743 14.3539 6.35392C14.3074 6.40041 14.2522 6.43728 14.1915 6.46244C14.1308 6.4876 14.0657 6.50055 13.9999 6.50055C13.9342 6.50055 13.8691 6.4876 13.8083 6.46244C13.7476 6.43728 13.6924 6.40041 13.6459 6.35392L10.9999 3.70692L8.35392 6.35392C8.30743 6.40041 8.25224 6.43728 8.1915 6.46244C8.13076 6.4876 8.06566 6.50055 7.99992 6.50055C7.93417 6.50055 7.86907 6.4876 7.80833 6.46244C7.74759 6.43728 7.6924 6.40041 7.64592 6.35392C7.59943 6.30743 7.56255 6.25224 7.53739 6.1915C7.51223 6.13076 7.49929 6.06566 7.49929 5.99992C7.49929 5.93417 7.51223 5.86907 7.53739 5.80833C7.56255 5.74759 7.59943 5.69241 7.64592 5.64592L10.6459 2.64592ZM1.64592 9.64592C1.69236 9.59935 1.74754 9.56241 1.80828 9.53721C1.86903 9.512 1.93415 9.49902 1.99992 9.49902C2.06568 9.49902 2.13081 9.512 2.19155 9.53721C2.2523 9.56241 2.30747 9.59935 2.35392 9.64592L4.99992 12.2929L7.64592 9.64592C7.6924 9.59943 7.74759 9.56255 7.80833 9.53739C7.86907 9.51224 7.93417 9.49929 7.99992 9.49929C8.06566 9.49929 8.13076 9.51224 8.1915 9.53739C8.25224 9.56255 8.30743 9.59943 8.35392 9.64592C8.4004 9.69241 8.43728 9.74759 8.46244 9.80833C8.4876 9.86907 8.50055 9.93417 8.50055 9.99992C8.50055 10.0657 8.4876 10.1308 8.46244 10.1915C8.43728 10.2522 8.4004 10.3074 8.35392 10.3539L5.35392 13.3539C5.30747 13.4005 5.2523 13.4374 5.19155 13.4626C5.13081 13.4878 5.06568 13.5008 4.99992 13.5008C4.93415 13.5008 4.86903 13.4878 4.80828 13.4626C4.74754 13.4374 4.69236 13.4005 4.64592 13.3539L1.64592 10.3539C1.59935 10.3075 1.56241 10.2523 1.5372 10.1916C1.512 10.1308 1.49902 10.0657 1.49902 9.99992C1.49902 9.93415 1.512 9.86903 1.5372 9.80828C1.56241 9.74754 1.59935 9.69236 1.64592 9.64592Z" fill="black"/>
<path id="Vector_3" fill-rule="evenodd" clip-rule="evenodd" d="M5 2.5C5.13261 2.5 5.25979 2.55268 5.35355 2.64645C5.44732 2.74021 5.5 2.86739 5.5 3V12C5.5 12.1326 5.44732 12.2598 5.35355 12.3536C5.25979 12.4473 5.13261 12.5 5 12.5C4.86739 12.5 4.74021 12.4473 4.64645 12.3536C4.55268 12.2598 4.5 12.1326 4.5 12V3C4.5 2.86739 4.55268 2.74021 4.64645 2.64645C4.74021 2.55268 4.86739 2.5 5 2.5Z" fill="black"/>
</g>
</svg>
