<svg width="16" height="16" viewBox="0 0 16 16" fill="none" xmlns="http://www.w3.org/2000/svg">
<g id="Bag">
<path id="Vector" fill-rule="evenodd" clip-rule="evenodd" d="M14 5H2V14C2 14.2652 2.10536 14.5196 2.29289 14.7071C2.48043 14.8946 2.73478 15 3 15H13C13.2652 15 13.5196 14.8946 13.7071 14.7071C13.8946 14.5196 14 14.2652 14 14V5ZM1 4V14C1 14.5304 1.21071 15.0391 1.58579 15.4142C1.96086 15.7893 2.46957 16 3 16H13C13.5304 16 14.0391 15.7893 14.4142 15.4142C14.7893 15.0391 15 14.5304 15 14V4H1Z" fill="#007BFF"/>
<path id="Vector_2" d="M8 1.5C7.33696 1.5 6.70107 1.76339 6.23223 2.23223C5.76339 2.70107 5.5 3.33696 5.5 4H4.5C4.5 3.07174 4.86875 2.1815 5.52513 1.52513C6.1815 0.868749 7.07174 0.5 8 0.5C8.92826 0.5 9.8185 0.868749 10.4749 1.52513C11.1313 2.1815 11.5 3.07174 11.5 4H10.5C10.5 3.33696 10.2366 2.70107 9.76777 2.23223C9.29893 1.76339 8.66304 1.5 8 1.5Z" fill="#007BFF"/>
</g>
</svg>
