<svg width="24" height="24" viewBox="0 0 24 24" fill="none" xmlns="http://www.w3.org/2000/svg">
<g id="shopping_cart_FILL0_wght300_GRAD0_opsz48 1">
<path id="Vector" d="M7.19271 21.5422C6.75219 21.5422 6.37961 21.3855 6.07498 21.0719C5.77036 20.7584 5.61806 20.3775 5.61806 19.9293C5.61806 19.481 5.77208 19.1019 6.08012 18.7919C6.38816 18.4819 6.76238 18.3269 7.20277 18.3269C7.64317 18.3269 8.01737 18.4837 8.32536 18.7972C8.63336 19.1108 8.78735 19.4917 8.78735 19.9399C8.78735 20.3881 8.63236 20.7672 8.32237 21.0772C8.01238 21.3872 7.63583 21.5422 7.19271 21.5422ZM16.7748 21.5422C16.3343 21.5422 15.9618 21.3855 15.6571 21.0719C15.3525 20.7584 15.2002 20.3775 15.2002 19.9293C15.2002 19.481 15.3542 19.1019 15.6623 18.7919C15.9703 18.4819 16.3445 18.3269 16.7849 18.3269C17.2253 18.3269 17.5995 18.4837 17.9075 18.7972C18.2155 19.1108 18.3695 19.4917 18.3695 19.9399C18.3695 20.3881 18.2145 20.7672 17.9045 21.0772C17.5945 21.3872 17.218 21.5422 16.7748 21.5422ZM5.7511 5.3692L8.50789 11.1846H15.3884C15.4454 11.1846 15.4977 11.1702 15.5453 11.1413C15.5928 11.1125 15.6292 11.0724 15.6546 11.0211L18.5825 5.63845C18.6205 5.56793 18.6237 5.50543 18.592 5.45093C18.5603 5.39644 18.5064 5.3692 18.4303 5.3692H5.7511ZM5.18076 4.2346H18.8934C19.2974 4.2346 19.6029 4.41121 19.81 4.76443C20.017 5.11763 20.0216 5.47563 19.8239 5.83845L16.7854 11.4065C16.6209 11.6829 16.4098 11.9041 16.1522 12.0702C15.8945 12.2362 15.6165 12.3192 15.3181 12.3192H8.00786L6.64278 14.8711C6.59842 14.948 6.59842 15.0314 6.64278 15.1211C6.68715 15.2109 6.75687 15.2557 6.85192 15.2557H18.3695V16.3903H7.01735C6.39502 16.3903 5.9457 16.173 5.66939 15.7384C5.39307 15.3038 5.3956 14.8237 5.67698 14.298L7.26831 11.3673L3.5305 3.38457H1.67871V2.25H4.25675L5.18076 4.2346Z" fill="#007BFF"/>
</g>
</svg>
