<svg width="20" height="20" viewBox="0 0 20 20" fill="none" xmlns="http://www.w3.org/2000/svg">
<g id="border_color_FILL0_wght300_GRAD0_opsz48 1" clip-path="url(#clip0_1295_19693)">
<path id="Vector" d="M1.66699 20V18.0962H18.3337V20H1.66699ZM3.78401 15.6154V13.3254L11.3946 5.73081L13.6686 8.00483L6.07403 15.6154H3.78401ZM4.72949 14.6699H5.61091L12.3096 7.97116L11.4282 7.08977L4.72949 13.7805V14.6699ZM14.4971 7.13622L12.2231 4.87827L13.6285 3.46483C13.7813 3.29495 13.9576 3.20654 14.1574 3.1996C14.3571 3.19265 14.5489 3.28106 14.7327 3.46483L15.8608 4.58497C16.0307 4.76018 16.117 4.94982 16.1197 5.15389C16.1223 5.35795 16.05 5.54758 15.9025 5.72279L14.4971 7.13622Z" fill="#007BFF"/>
</g>
<defs>
<clipPath id="clip0_1295_19693">
<rect width="20" height="20" fill="white"/>
</clipPath>
</defs>
</svg>
