<svg width="52" height="52" viewBox="0 0 52 52" fill="none" xmlns="http://www.w3.org/2000/svg">
<g id="autorenew_FILL0_wght300_GRAD0_opsz48 1">
<path id="Vector" d="M10.8875 33.3411C10.2764 32.1662 9.8438 30.9787 9.58961 29.7787C9.33546 28.5787 9.20839 27.3551 9.20839 26.1079C9.20839 21.5023 10.8556 17.5489 14.15 14.2475C17.4445 10.9461 21.3945 9.29542 26 9.29542H29.1209L24.475 4.64954L26.0875 3.03711L33.5749 10.5246L26.0875 17.9912L24.4417 16.3454L29.0334 11.7537H26C22.0528 11.7537 18.6771 13.1593 15.8729 15.9704C13.0687 18.7815 11.6666 22.1607 11.6666 26.1079C11.6666 27.0857 11.759 28.037 11.9438 28.962C12.1285 29.887 12.3653 30.7579 12.6541 31.5745L10.8875 33.3411ZM25.8458 49.0828L18.3584 41.5954L25.8458 34.1288L27.4375 35.7204L22.8125 40.3662H26C29.9472 40.3662 33.3229 38.9607 36.1271 36.1496C38.9313 33.3385 40.3334 29.9593 40.3334 26.0121C40.3334 25.0343 40.25 24.0829 40.0833 23.1579C39.9167 22.2329 39.6598 21.3621 39.3125 20.5454L41.0791 18.7788C41.6763 19.9537 42.1111 21.1412 42.3833 22.3412C42.6555 23.5413 42.7916 24.7649 42.7916 26.0121C42.7916 30.6176 41.1444 34.5711 37.85 37.8725C34.5555 41.1738 30.6055 42.8245 26 42.8245H22.8125L27.4375 47.4704L25.8458 49.0828Z" fill="#6C757D"/>
</g>
</svg>
