<svg width="16" height="16" viewBox="0 0 16 16" fill="none" xmlns="http://www.w3.org/2000/svg">
<g id="Arrow clockwise" clip-path="url(#clip0_1463_16520)">
<path id="Vector" fill-rule="evenodd" clip-rule="evenodd" d="M3.17007 6.70561C3.36284 5.98576 3.71408 5.31811 4.19809 4.75149C4.68211 4.18486 5.28666 3.73359 5.96753 3.43068C6.6484 3.12777 7.38837 2.98089 8.13331 3.00078C8.87826 3.02066 9.60933 3.20681 10.2731 3.54561C10.3316 3.57542 10.3955 3.5934 10.461 3.59853C10.5266 3.60366 10.5924 3.59583 10.6549 3.57549C10.7174 3.55516 10.7753 3.52271 10.8253 3.48001C10.8752 3.4373 10.9163 3.38518 10.9461 3.32661C10.9759 3.26804 10.9939 3.20417 10.999 3.13865C11.0041 3.07313 10.9963 3.00725 10.976 2.94475C10.9556 2.88226 10.9232 2.82438 10.8805 2.77443C10.8378 2.72447 10.7856 2.68342 10.7271 2.65361C9.464 2.00911 8.01348 1.83279 6.63279 2.15591C5.25209 2.47902 4.03045 3.28071 3.18455 4.41876C2.33864 5.55682 1.92313 6.95769 2.01173 8.37292C2.10032 9.78816 2.68729 11.1263 3.66852 12.1499C4.64975 13.1736 5.96183 13.8167 7.37205 13.9651C8.78226 14.1135 10.1995 13.7577 11.3723 12.9607C12.5451 12.1637 13.3978 10.9771 13.7791 9.61129C14.1603 8.24551 14.0455 6.78883 13.4551 5.49961C13.3998 5.37894 13.2988 5.28517 13.1744 5.23894C13.0499 5.19272 12.9122 5.19781 12.7916 5.25311C12.6709 5.30841 12.5771 5.40938 12.5309 5.53381C12.4847 5.65824 12.4898 5.79594 12.5451 5.91661C12.8794 6.64606 13.0332 7.44526 12.9936 8.24669C12.954 9.04813 12.722 9.82825 12.3174 10.5212C11.9127 11.2141 11.3473 11.7994 10.6688 12.2278C9.99024 12.6561 9.21859 12.9148 8.41901 12.9821C7.61942 13.0494 6.81539 12.9233 6.07482 12.6144C5.33425 12.3055 4.67891 11.8229 4.16415 11.2073C3.64939 10.5918 3.29033 9.86142 3.11731 9.07788C2.94429 8.29435 2.96239 7.48068 3.17007 6.70561Z" fill="#495057"/>
<path id="Vector_2" fill-rule="evenodd" clip-rule="evenodd" d="M8.14689 0.146393C8.24066 0.0526577 8.36781 0 8.50039 0C8.63298 0 8.76013 0.0526577 8.85389 0.146393L11.3539 2.64639C11.4005 2.69284 11.4374 2.74801 11.4626 2.80876C11.4878 2.8695 11.5008 2.93463 11.5008 3.00039C11.5008 3.06616 11.4878 3.13128 11.4626 3.19203C11.4374 3.25277 11.4005 3.30795 11.3539 3.35439L8.85389 5.85439C8.80741 5.90082 8.75223 5.93763 8.69152 5.96273C8.6308 5.98782 8.56574 6.00072 8.50004 6.00067C8.43434 6.00063 8.3693 5.98764 8.30862 5.96245C8.24794 5.93727 8.19282 5.90038 8.14639 5.85389C8.05264 5.76001 8.00002 5.63272 8.00012 5.50004C8.00016 5.43434 8.01315 5.3693 8.03833 5.30862C8.06352 5.24794 8.10041 5.19282 8.14689 5.14639L10.2929 3.00039L8.14689 0.854393C8.10033 0.807948 8.06339 0.752772 8.03818 0.692027C8.01297 0.631282 8 0.566161 8 0.500393C8 0.434626 8.01297 0.369505 8.03818 0.30876C8.06339 0.248014 8.10033 0.192839 8.14689 0.146393Z" fill="#495057"/>
</g>
<defs>
<clipPath id="clip0_1463_16520">
<rect width="16" height="16" fill="white"/>
</clipPath>
</defs>
</svg>
