<svg width="72" height="72" viewBox="0 0 72 72" fill="none" xmlns="http://www.w3.org/2000/svg">
<g id="check_circle_FILL0_wght300_GRAD0_opsz48 1">
<path id="Vector" d="M31.5749 48.6402L51.7902 28.4249L49.1768 25.8577L31.5749 43.4884L22.6904 34.6038L20.1519 37.171L31.5749 48.6402ZM36.0049 64.4999C32.0939 64.4999 28.409 63.7518 24.9502 62.2558C21.4914 60.7598 18.4667 58.7171 15.876 56.1276C13.2853 53.5381 11.2416 50.5146 9.74498 47.0574C8.24833 43.6001 7.5 39.9159 7.5 36.0049C7.5 32.0631 8.248 28.358 9.744 24.8896C11.24 21.4212 13.2827 18.4042 15.8723 15.8385C18.4618 13.2728 21.4852 11.2416 24.9424 9.74498C28.3997 8.24833 32.0839 7.5 35.9949 7.5C39.9367 7.5 43.6418 8.248 47.1102 9.744C50.5787 11.24 53.5957 13.2702 56.1614 15.8348C58.7271 18.3993 60.7582 21.415 62.2549 24.8819C63.7515 28.3488 64.4999 32.0531 64.4999 35.9949C64.4999 39.906 63.7519 43.5909 62.2559 47.0497C60.7599 50.5085 58.7296 53.5332 56.1651 56.1238C53.6006 58.7145 50.5848 60.7582 47.1179 62.2549C43.6511 63.7515 39.9468 64.4999 36.0049 64.4999ZM35.9999 61.096C42.9845 61.096 48.9134 58.6518 53.7865 53.7634C58.6595 48.8749 61.0961 42.9538 61.0961 35.9999C61.0961 29.0153 58.6595 23.0865 53.7865 18.2134C48.9134 13.3403 42.9845 10.9038 35.9999 10.9038C29.0461 10.9038 23.1249 13.3403 18.2365 18.2134C13.348 23.0865 10.9038 29.0153 10.9038 35.9999C10.9038 42.9538 13.348 48.8749 18.2365 53.7634C23.1249 58.6518 29.0461 61.096 35.9999 61.096Z" fill="#28A745"/>
</g>
</svg>
