<svg width="73" height="72" viewBox="0 0 73 72" fill="none" xmlns="http://www.w3.org/2000/svg">
<g id="Exclamation triangle" clip-path="url(#clip0_1310_37739)">
<path id="Vector" fill-rule="evenodd" clip-rule="evenodd" d="M36.2211 9.07252C36.1182 9.13422 36.0342 9.22293 35.9781 9.32902L5.12162 61.8305C5.04475 61.9538 5.00326 62.0958 5.00167 62.241C5.00008 62.3862 5.03847 62.5291 5.11262 62.654C5.18462 62.789 5.27912 62.879 5.35562 62.924C5.42312 62.969 5.50862 63.0005 5.65262 63.0005H67.3611C67.4654 63.0043 67.5686 62.9777 67.6581 62.924C67.7621 62.8564 67.8473 62.7635 67.9056 62.654C67.9791 62.5287 68.0167 62.3856 68.0143 62.2404C68.012 62.0951 67.9697 61.9533 67.8921 61.8305L37.0401 9.32902C36.9841 9.22293 36.9 9.13422 36.7971 9.07252C36.7089 9.02415 36.6097 8.99935 36.5091 9.00052C36.4085 8.99935 36.3093 9.02415 36.2211 9.07252ZM40.9191 7.04752C40.4737 6.27155 39.8314 5.62686 39.0571 5.17854C38.2827 4.73022 37.4039 4.49414 36.5091 4.49414C35.6144 4.49414 34.7355 4.73022 33.9612 5.17854C33.1869 5.62686 32.5446 6.27155 32.0991 7.04752L1.24262 59.549C-0.813877 63.05 1.65212 67.5005 5.65262 67.5005H67.3611C71.3616 67.5005 73.8321 63.0455 71.7711 59.549L40.9191 7.04752Z" fill="#FFC107"/>
<path id="Vector_2" d="M32.0088 54C32.0088 53.4091 32.1252 52.8239 32.3513 52.278C32.5775 51.732 32.9089 51.2359 33.3268 50.8181C33.7447 50.4002 34.2407 50.0687 34.7867 49.8426C35.3327 49.6164 35.9178 49.5 36.5088 49.5C37.0997 49.5 37.6849 49.6164 38.2309 49.8426C38.7768 50.0687 39.2729 50.4002 39.6908 50.8181C40.1086 51.2359 40.4401 51.732 40.6662 52.278C40.8924 52.8239 41.0088 53.4091 41.0088 54C41.0088 55.1935 40.5347 56.3381 39.6908 57.182C38.8469 58.0259 37.7023 58.5 36.5088 58.5C35.3153 58.5 34.1707 58.0259 33.3268 57.182C32.4829 56.3381 32.0088 55.1935 32.0088 54ZM32.4498 26.9775C32.3899 26.4098 32.45 25.8359 32.6262 25.2929C32.8024 24.7499 33.0908 24.25 33.4727 23.8257C33.8546 23.4014 34.3215 23.0621 34.8429 22.8298C35.3644 22.5976 35.9289 22.4775 36.4998 22.4775C37.0707 22.4775 37.6352 22.5976 38.1566 22.8298C38.6781 23.0621 39.145 23.4014 39.5269 23.8257C39.9087 24.25 40.1972 24.7499 40.3734 25.2929C40.5496 25.8359 40.6097 26.4098 40.5498 26.9775L38.9748 42.759C38.9219 43.379 38.6382 43.9565 38.1799 44.3774C37.7216 44.7983 37.122 45.0318 36.4998 45.0318C35.8776 45.0318 35.278 44.7983 34.8197 44.3774C34.3614 43.9565 34.0777 43.379 34.0248 42.759L32.4498 26.9775Z" fill="#FFC107"/>
</g>
<defs>
<clipPath id="clip0_1310_37739">
<rect width="72" height="72" fill="white" transform="translate(0.5)"/>
</clipPath>
</defs>
</svg>
